# xmcd
#
# Track frame offsets: 
#        151
#        14962
#        32233
#        49956
#        64085
#        80908
#        98787
#        115678
#        133693
#        148932
#        166319
#        182170
#
# Disc length: 2667 seconds
#
# Revision: 0
# Processed by: cddbd v1.5.1PL2 Copyright (c) Steve Scherf et al.
# Submitted via: ExactAudioCopy v0.95b4
#
DISCID=b40a690c
DTITLE=วิเชีร  ซำเหมา - มักสาวเอวยาว
DYEAR=1900
DGENRE=Country
TTITLE0=มักสาวเอวยาว
TTITLE1=อยากเป็นลิเก
TTITLE2=ลูกผู้ชาย
TTITLE3=ย่านบ่สมหวัว
TTITLE4=15 ค่ำที่หนองคาย
TTITLE5=ดีใจกับเมียฝรั่ง
TTITLE6=หมายไว้ได้บ่
TTITLE7=นางฟ้าราตรี
TTITLE8=สายเลือดศิลปิน
TTITLE9=บอกใจให้ถอย
TTITLE10=ขอไปหวั่งๆ
TTITLE11=ได้ฟังแต่ข่าว
EXTD=
EXTT0=
EXTT1=
EXTT2=
EXTT3=
EXTT4=
EXTT5=
EXTT6=
EXTT7=
EXTT8=
EXTT9=
EXTT10=
EXTT11=
PLAYORDER=
